<svg xmlns="http://www.w3.org/2000/svg" width="1200" height="630" viewBox="0 0 1200 630" font-family="&#39;Noto Sans JP&#39;,&#39;Hiragino Kaku Gothic ProN&#39;,sans-serif">
  <defs>
    <radialGradient id="bgw" cx="85%" cy="20%" r="70%">
      <stop offset="0" stop-color="#2FD18C" stop-opacity="0.55"></stop>
      <stop offset="0.6" stop-color="#0E8E58" stop-opacity="0"></stop>
    </radialGradient>
  </defs>
  <rect width="1200" height="630" fill="#0E8E58"></rect>
  <rect width="1200" height="630" fill="url(#bgw)"></rect>

  
  <g transform="translate(64,54)">
    <g fill="none" stroke="#fff" stroke-width="5" stroke-linecap="round" stroke-linejoin="round" transform="scale(0.5)">
      <circle cx="20" cy="50" r="8"></circle><circle cx="80" cy="50" r="8"></circle>
      <path d="M50 16 C31 16 20 28 20 47 C20 70 33 86 50 86 C67 86 80 70 80 47 C80 28 69 16 50 16 Z"></path>
      <path d="M31 45 Q50 37 69 45"></path>
      <path d="M40 64 Q50 59.5 60 64 Q65 70 59 74.5 Q50 78 41 74.5 Q35 70 40 64 Z"></path>
    </g>
    <circle cx="20.5" cy="26.25" r="1.35" fill="#fff"></circle><circle cx="29.5" cy="26.25" r="1.35" fill="#fff"></circle>
    <text x="66" y="38" font-size="30" font-weight="900" fill="#fff">ゴリラ予想</text>
  </g>

  
  <g transform="translate(770,150)" fill="none" stroke="#fff" stroke-width="4" stroke-linecap="round" stroke-linejoin="round" opacity="0.95">
    <g transform="scale(3.4)">
      <circle cx="16" cy="50" r="9"></circle><circle cx="84" cy="50" r="9"></circle>
      <path d="M50 14 C30 14 18 27 18 47 C18 71 32 88 50 88 C68 88 82 71 82 47 C82 27 70 14 50 14 Z"></path>
      <path d="M30 46 Q50 38 70 46"></path>
      <path d="M35 53 Q40 48 45 53"></path><path d="M55 53 Q60 48 65 53"></path>
      <path d="M39 64 Q50 59 61 64 Q66 70 60 75 Q50 79 40 75 Q34 70 39 64 Z"></path>
      <path d="M40 80 Q50 90 60 80"></path>
    </g>
  </g>

  <text x="64" y="318" font-size="120" font-weight="900" fill="#fff" letter-spacing="-2">的中！</text>
  <g fill="rgba(255,255,255,0.95)" font-size="34" font-weight="800">
    <text x="64" y="392">2026年の流行語大賞、</text>
    <text x="64" y="440">「AI」系ワードがノミネート入り</text>
  </g>

  <g transform="translate(64,490)">
    <rect width="320" height="62" rx="16" fill="#ffffff" fill-opacity="0.18"></rect>
    <text x="28" y="40" font-size="24" font-weight="700" fill="rgba(255,255,255,0.9)">受取</text>
    <text x="300" y="44" font-size="40" font-weight="900" fill="#fff" text-anchor="end" font-family="&#39;Roboto Mono&#39;,monospace">+137 pt</text>
  </g>

  <text x="64" y="596" font-size="20" font-weight="700" fill="rgba(255,255,255,0.85)">あなたも予想に乗ろう ・ goripredict.app</text>
</svg>