<svg xmlns="http://www.w3.org/2000/svg" viewBox="0 0 100 100" width="100" height="100">
  <rect width="100" height="100" rx="28" fill="#7B46E3"></rect>
  <g fill="none" stroke="#fff" stroke-width="5" stroke-linecap="round" stroke-linejoin="round">
    <circle cx="20" cy="50" r="8"></circle>
    <circle cx="80" cy="50" r="8"></circle>
    <path d="M50 16 C31 16 20 28 20 47 C20 70 33 86 50 86 C67 86 80 70 80 47 C80 28 69 16 50 16 Z"></path>
    <path d="M31 45 Q50 37 69 45"></path>
    <path d="M40 64 Q50 59.5 60 64 Q65 70 59 74.5 Q50 78 41 74.5 Q35 70 40 64 Z"></path>
    <path d="M44 82 Q50 85.5 56 82"></path>
  </g>
  <circle cx="41" cy="52.5" r="2.7" fill="#fff"></circle>
  <circle cx="59" cy="52.5" r="2.7" fill="#fff"></circle>
</svg>