<svg xmlns="http://www.w3.org/2000/svg" width="1200" height="630" viewBox="0 0 1200 630" font-family="&#39;Noto Sans JP&#39;,&#39;Hiragino Kaku Gothic ProN&#39;,sans-serif">
  <defs>
    <radialGradient id="bg" cx="88%" cy="12%" r="70%">
      <stop offset="0" stop-color="#EFE8FC"></stop>
      <stop offset="0.6" stop-color="#FAF6EF"></stop>
    </radialGradient>
  </defs>
  <rect width="1200" height="630" fill="#FAF6EF"></rect>
  <rect width="1200" height="630" fill="url(#bg)"></rect>

  
  <g transform="translate(64,54)">
    <g fill="none" stroke="#2A2018" stroke-width="5" stroke-linecap="round" stroke-linejoin="round" transform="scale(0.56)">
      <circle cx="20" cy="50" r="8"></circle><circle cx="80" cy="50" r="8"></circle>
      <path d="M50 16 C31 16 20 28 20 47 C20 70 33 86 50 86 C67 86 80 70 80 47 C80 28 69 16 50 16 Z"></path>
      <path d="M31 45 Q50 37 69 45"></path>
      <path d="M40 64 Q50 59.5 60 64 Q65 70 59 74.5 Q50 78 41 74.5 Q35 70 40 64 Z"></path>
    </g>
    <circle cx="22.96" cy="29.4" r="1.5" fill="#2A2018"></circle><circle cx="33.04" cy="29.4" r="1.5" fill="#2A2018"></circle>
    <text x="74" y="42" font-size="34" font-weight="900" fill="#2A2018">ゴリラ予想</text>
    <rect x="270" y="14" width="118" height="40" rx="20" fill="#EFE8FC"></rect>
    <text x="329" y="41" font-size="18" font-weight="800" fill="#7B46E3" text-anchor="middle">エンタメ</text>
  </g>

  
  <g fill="#2A2018" font-size="48" font-weight="900">
    <text x="64" y="244">2026年の流行語大賞、</text>
    <text x="64" y="308">ノミネートに「AI」系</text>
    <text x="64" y="372">ワードが入る？</text>
  </g>

  
  <g transform="translate(64,430)">
    <rect width="150" height="52" rx="14" fill="#E5F7EF"></rect>
    <text x="75" y="34" font-size="24" font-weight="800" fill="#15B877" text-anchor="middle">YES 73¢</text>
    <rect x="166" width="146" height="52" rx="14" fill="#FCEAE6"></rect>
    <text x="239" y="34" font-size="24" font-weight="800" fill="#F2604C" text-anchor="middle">NO 27¢</text>
  </g>

  
  <text x="1130" y="372" font-size="200" font-weight="900" fill="#7B46E3" text-anchor="end" font-family="&#39;Roboto Mono&#39;,monospace">73<tspan font-size="84">%</tspan></text>
  <text x="1130" y="414" font-size="26" font-weight="800" fill="#8B8073" text-anchor="end">が「起きる」と予想</text>

  <text x="64" y="586" font-size="20" font-weight="700" fill="#8B8073">換金不可ポイントで遊ぶ予測市場 ・ goripredict.app</text>
</svg>